<!-- <svg width="103" height="28" viewBox="0 0 103 28" fill="none" xmlns="http://www.w3.org/2000/svg">
<path d="M21.1306 2.5905V5.8385H13.9066V10.1505H20.5146V13.3705H13.9066V20.2305H9.65059V2.5905H21.1306ZM37.1838 13.4265C37.1838 14.5278 36.9971 15.5172 36.6238 16.3945C36.2691 17.2718 35.7744 18.0185 35.1398 18.6345C34.5051 19.2505 33.7584 19.7265 32.8998 20.0625C32.0411 20.3798 31.1171 20.5385 30.1278 20.5385C29.1384 20.5385 28.2144 20.3892 27.3558 20.0905C26.5158 19.7732 25.7878 19.3252 25.1718 18.7465C24.5558 18.1678 24.0704 17.4585 23.7158 16.6185C23.3611 15.7598 23.1838 14.7892 23.1838 13.7065C23.1838 12.5678 23.3611 11.5505 23.7158 10.6545C24.0891 9.7585 24.5931 9.0025 25.2278 8.3865C25.8624 7.7705 26.6091 7.30383 27.4678 6.9865C28.3264 6.6505 29.2504 6.4825 30.2398 6.4825C31.2291 6.4825 32.1438 6.63183 32.9838 6.9305C33.8424 7.22917 34.5798 7.67717 35.1958 8.2745C35.8118 8.85317 36.2971 9.57183 36.6518 10.4305C37.0064 11.2892 37.1838 12.2878 37.1838 13.4265ZM32.9278 13.5665C32.9278 12.8385 32.8531 12.2225 32.7038 11.7185C32.5544 11.1958 32.3491 10.7758 32.0878 10.4585C31.8264 10.1225 31.5278 9.87983 31.1918 9.7305C30.8558 9.58117 30.5104 9.5065 30.1558 9.5065C29.8011 9.5065 29.4558 9.57183 29.1198 9.7025C28.8024 9.83317 28.5131 10.0572 28.2518 10.3745C28.0091 10.6918 27.8131 11.1118 27.6638 11.6345C27.5144 12.1385 27.4398 12.7825 27.4398 13.5665C27.4398 14.9292 27.7198 15.9278 28.2798 16.5625C28.8398 17.1972 29.4838 17.5145 30.2118 17.5145C30.5664 17.5145 30.9024 17.4492 31.2198 17.3185C31.5558 17.1692 31.8451 16.9452 32.0878 16.6465C32.3491 16.3292 32.5544 15.9185 32.7038 15.4145C32.8531 14.9105 32.9278 14.2945 32.9278 13.5665ZM53.8832 13.4265C53.8832 14.5278 53.6965 15.5172 53.3232 16.3945C52.9685 17.2718 52.4738 18.0185 51.8392 18.6345C51.2045 19.2505 50.4578 19.7265 49.5992 20.0625C48.7405 20.3798 47.8165 20.5385 46.8272 20.5385C45.8378 20.5385 44.9138 20.3892 44.0552 20.0905C43.2152 19.7732 42.4872 19.3252 41.8712 18.7465C41.2552 18.1678 40.7698 17.4585 40.4152 16.6185C40.0605 15.7598 39.8832 14.7892 39.8832 13.7065C39.8832 12.5678 40.0605 11.5505 40.4152 10.6545C40.7885 9.7585 41.2925 9.0025 41.9272 8.3865C42.5618 7.7705 43.3085 7.30383 44.1672 6.9865C45.0258 6.6505 45.9498 6.4825 46.9392 6.4825C47.9285 6.4825 48.8432 6.63183 49.6832 6.9305C50.5418 7.22917 51.2792 7.67717 51.8952 8.2745C52.5112 8.85317 52.9965 9.57183 53.3512 10.4305C53.7058 11.2892 53.8832 12.2878 53.8832 13.4265ZM49.6272 13.5665C49.6272 12.8385 49.5525 12.2225 49.4032 11.7185C49.2538 11.1958 49.0485 10.7758 48.7872 10.4585C48.5258 10.1225 48.2272 9.87983 47.8912 9.7305C47.5552 9.58117 47.2098 9.5065 46.8552 9.5065C46.5005 9.5065 46.1552 9.57183 45.8192 9.7025C45.5018 9.83317 45.2125 10.0572 44.9512 10.3745C44.7085 10.6918 44.5125 11.1118 44.3632 11.6345C44.2138 12.1385 44.1392 12.7825 44.1392 13.5665C44.1392 14.9292 44.4192 15.9278 44.9792 16.5625C45.5392 17.1972 46.1832 17.5145 46.9112 17.5145C47.2658 17.5145 47.6018 17.4492 47.9192 17.3185C48.2552 17.1692 48.5445 16.9452 48.7872 16.6465C49.0485 16.3292 49.2538 15.9185 49.4032 15.4145C49.5525 14.9105 49.6272 14.2945 49.6272 13.5665ZM65.8505 0.210498H69.9945V20.2305H67.1385L66.7185 18.7745H66.5785C66.3172 19.1852 65.8599 19.5865 65.2065 19.9785C64.5719 20.3518 63.7319 20.5385 62.6865 20.5385C61.8092 20.5385 60.9972 20.3798 60.2505 20.0625C59.5039 19.7265 58.8599 19.2598 58.3185 18.6625C57.7772 18.0465 57.3479 17.3092 57.0305 16.4505C56.7319 15.5732 56.5825 14.5932 56.5825 13.5105C56.5825 12.4465 56.7225 11.4852 57.0025 10.6265C57.2825 9.74917 57.6839 9.01183 58.2065 8.4145C58.7479 7.7985 59.4105 7.3225 60.1945 6.9865C60.9785 6.6505 61.8652 6.4825 62.8545 6.4825C63.4705 6.4825 64.0492 6.57583 64.5905 6.7625C65.1505 6.9305 65.5705 7.14517 65.8505 7.4065V0.210498ZM65.8505 10.4305C65.6825 10.2065 65.4212 9.99183 65.0665 9.7865C64.7119 9.58117 64.3199 9.4785 63.8905 9.4785C63.4612 9.4785 63.0599 9.55317 62.6865 9.7025C62.3132 9.83317 61.9772 10.0572 61.6785 10.3745C61.3985 10.6918 61.1745 11.1025 61.0065 11.6065C60.8385 12.0918 60.7545 12.6985 60.7545 13.4265C60.7545 14.8265 61.0252 15.8625 61.5665 16.5345C62.1265 17.1878 62.8452 17.5145 63.7225 17.5145C64.2639 17.5145 64.7119 17.3745 65.0665 17.0945C65.4399 16.8145 65.7012 16.5158 65.8505 16.1985V10.4305ZM72.718 6.7905H77.254L79.466 12.7825L80.362 16.0585H80.474L81.314 12.7265L83.246 6.7905H87.474L82.63 20.4825C82.3686 21.2478 82.0606 21.9945 81.706 22.7225C81.3513 23.4505 80.9126 24.1318 80.39 24.7665C79.886 25.4012 79.27 25.9798 78.542 26.5025C77.814 27.0252 76.9366 27.4545 75.91 27.7905L74.202 24.5705C75.3033 24.1785 76.2086 23.6185 76.918 22.8905C77.646 22.1625 78.1313 21.3225 78.374 20.3705L78.43 20.1465L72.718 6.7905Z" fill="#F5F5F5"/>
<path d="M89.7431 18.0745C89.7431 17.3652 89.9764 16.7865 90.4431 16.3385C90.9284 15.8718 91.4977 15.6385 92.1511 15.6385C92.8044 15.6385 93.3644 15.8718 93.8311 16.3385C94.2977 16.7865 94.5311 17.3652 94.5311 18.0745C94.5311 18.8398 94.2977 19.4465 93.8311 19.8945C93.3644 20.3238 92.8044 20.5385 92.1511 20.5385C91.4977 20.5385 90.9284 20.3238 90.4431 19.8945C89.9764 19.4465 89.7431 18.8398 89.7431 18.0745Z" fill="#EAAB00"/>
</svg> -->


<svg width="110" height="36" viewBox="0 0 110 36" fill="none" xmlns="http://www.w3.org/2000/svg">
<path d="M15.4282 3.32V7.496H6.14019V13.04H14.6362V17.18H6.14019V26H0.668187V3.32H15.4282ZM36.068 17.252C36.068 18.668 35.828 19.94 35.348 21.068C34.892 22.196 34.256 23.156 33.44 23.948C32.624 24.74 31.664 25.352 30.56 25.784C29.456 26.192 28.268 26.396 26.996 26.396C25.724 26.396 24.536 26.204 23.432 25.82C22.352 25.412 21.416 24.836 20.624 24.092C19.832 23.348 19.208 22.436 18.752 21.356C18.296 20.252 18.068 19.004 18.068 17.612C18.068 16.148 18.296 14.84 18.752 13.688C19.232 12.536 19.88 11.564 20.696 10.772C21.512 9.98 22.472 9.38 23.576 8.972C24.68 8.54 25.868 8.324 27.14 8.324C28.412 8.324 29.588 8.516 30.668 8.9C31.772 9.284 32.72 9.86 33.512 10.628C34.304 11.372 34.928 12.296 35.384 13.4C35.84 14.504 36.068 15.788 36.068 17.252ZM30.596 17.432C30.596 16.496 30.5 15.704 30.308 15.056C30.116 14.384 29.852 13.844 29.516 13.436C29.18 13.004 28.796 12.692 28.364 12.5C27.932 12.308 27.488 12.212 27.032 12.212C26.576 12.212 26.132 12.296 25.7 12.464C25.292 12.632 24.92 12.92 24.584 13.328C24.272 13.736 24.02 14.276 23.828 14.948C23.636 15.596 23.54 16.424 23.54 17.432C23.54 19.184 23.9 20.468 24.62 21.284C25.34 22.1 26.168 22.508 27.104 22.508C27.56 22.508 27.992 22.424 28.4 22.256C28.832 22.064 29.204 21.776 29.516 21.392C29.852 20.984 30.116 20.456 30.308 19.808C30.5 19.16 30.596 18.368 30.596 17.432ZM57.5386 17.252C57.5386 18.668 57.2986 19.94 56.8186 21.068C56.3626 22.196 55.7266 23.156 54.9106 23.948C54.0946 24.74 53.1346 25.352 52.0306 25.784C50.9266 26.192 49.7386 26.396 48.4666 26.396C47.1946 26.396 46.0066 26.204 44.9026 25.82C43.8226 25.412 42.8866 24.836 42.0946 24.092C41.3026 23.348 40.6786 22.436 40.2226 21.356C39.7666 20.252 39.5386 19.004 39.5386 17.612C39.5386 16.148 39.7666 14.84 40.2226 13.688C40.7026 12.536 41.3506 11.564 42.1666 10.772C42.9826 9.98 43.9426 9.38 45.0466 8.972C46.1506 8.54 47.3386 8.324 48.6106 8.324C49.8826 8.324 51.0586 8.516 52.1386 8.9C53.2426 9.284 54.1906 9.86 54.9826 10.628C55.7746 11.372 56.3986 12.296 56.8546 13.4C57.3106 14.504 57.5386 15.788 57.5386 17.252ZM52.0666 17.432C52.0666 16.496 51.9706 15.704 51.7786 15.056C51.5866 14.384 51.3226 13.844 50.9866 13.436C50.6506 13.004 50.2666 12.692 49.8346 12.5C49.4026 12.308 48.9586 12.212 48.5026 12.212C48.0466 12.212 47.6026 12.296 47.1706 12.464C46.7626 12.632 46.3906 12.92 46.0546 13.328C45.7426 13.736 45.4906 14.276 45.2986 14.948C45.1066 15.596 45.0106 16.424 45.0106 17.432C45.0106 19.184 45.3706 20.468 46.0906 21.284C46.8106 22.1 47.6386 22.508 48.5746 22.508C49.0306 22.508 49.4626 22.424 49.8706 22.256C50.3026 22.064 50.6746 21.776 50.9866 21.392C51.3226 20.984 51.5866 20.456 51.7786 19.808C51.9706 19.16 52.0666 18.368 52.0666 17.432ZM72.9253 0.259999H78.2533V26H74.5813L74.0413 24.128H73.8613C73.5253 24.656 72.9373 25.172 72.0973 25.676C71.2813 26.156 70.2013 26.396 68.8573 26.396C67.7293 26.396 66.6853 26.192 65.7253 25.784C64.7653 25.352 63.9373 24.752 63.2413 23.984C62.5453 23.192 61.9933 22.244 61.5853 21.14C61.2013 20.012 61.0093 18.752 61.0093 17.36C61.0093 15.992 61.1893 14.756 61.5493 13.652C61.9093 12.524 62.4253 11.576 63.0973 10.808C63.7933 10.016 64.6453 9.404 65.6533 8.972C66.6613 8.54 67.8013 8.324 69.0733 8.324C69.8653 8.324 70.6093 8.444 71.3053 8.684C72.0253 8.9 72.5653 9.176 72.9253 9.512V0.259999ZM72.9253 13.4C72.7093 13.112 72.3733 12.836 71.9173 12.572C71.4613 12.308 70.9573 12.176 70.4053 12.176C69.8533 12.176 69.3373 12.272 68.8573 12.464C68.3773 12.632 67.9453 12.92 67.5613 13.328C67.2013 13.736 66.9133 14.264 66.6973 14.912C66.4813 15.536 66.3733 16.316 66.3733 17.252C66.3733 19.052 66.7213 20.384 67.4173 21.248C68.1373 22.088 69.0613 22.508 70.1893 22.508C70.8853 22.508 71.4613 22.328 71.9173 21.968C72.3973 21.608 72.7333 21.224 72.9253 20.816V13.4ZM81.7548 8.72H87.5868L90.4308 16.424L91.5828 20.636H91.7268L92.8068 16.352L95.2908 8.72H100.727L94.4988 26.324C94.1628 27.308 93.7668 28.268 93.3108 29.204C92.8548 30.14 92.2908 31.016 91.6188 31.832C90.9708 32.648 90.1788 33.392 89.2428 34.064C88.3068 34.736 87.1788 35.288 85.8588 35.72L83.6628 31.58C85.0788 31.076 86.2428 30.356 87.1548 29.42C88.0908 28.484 88.7148 27.404 89.0268 26.18L89.0988 25.892L81.7548 8.72Z" fill="black"/>
<path d="M103.644 23.228C103.644 22.316 103.944 21.572 104.544 20.996C105.168 20.396 105.9 20.096 106.74 20.096C107.58 20.096 108.3 20.396 108.9 20.996C109.5 21.572 109.8 22.316 109.8 23.228C109.8 24.212 109.5 24.992 108.9 25.568C108.3 26.12 107.58 26.396 106.74 26.396C105.9 26.396 105.168 26.12 104.544 25.568C103.944 24.992 103.644 24.212 103.644 23.228Z" fill="#D63626"/>
</svg>
